<svg width="375" height="434" viewBox="0 0 375 434" fill="none" xmlns="http://www.w3.org/2000/svg">
<path d="M97.4488 166.937C94.6212 250.871 132.035 299.763 188.586 317.594C238.572 305.19 280.481 263.499 280.481 166.937C280.481 83.4683 227.466 48.582 188.586 48.582C149.707 48.582 100.276 83.0032 97.4488 166.937Z" stroke="white" stroke-width="1.00983"/>
<path d="M145.92 295.371C147.856 315.097 149.202 355.424 130.773 366.953C117.14 375.48 52.7636 385.559 22.4686 399.513C5.80643 407.188 1.51465 423.287 1.51465 431.04" stroke="white" stroke-width="1.00983"/>
<path d="M228.399 299.607C226.464 319.333 224.997 360.592 243.426 372.121C257.059 380.648 321.436 390.727 351.731 404.681C366.064 411.283 372.88 423.287 372.88 431.04" stroke="white" stroke-width="1.00983"/>
<path opacity="0.5" d="M13.8994 404.107C6.02189 411.03 0.399414 423.607 0 433.108V0H374.9V433.108C371.954 428.801 372.456 418.967 360.005 409.075C343.09 395.637 270.887 384.267 243.874 371.604C225.187 362.845 226.315 310.658 228.899 300.107C229.601 297.243 283.499 266.401 281.238 168.489C278.977 70.5766 219.399 48.1074 189.899 48.1074C157.399 48.1074 100.399 73.1074 96.9914 167.26C93.6469 259.661 145.26 294.607 145.416 295.888C149.256 327.573 143.899 361.607 128.399 367.607C92.1071 381.656 30.3994 389.607 13.8994 404.107Z" fill="#1B1B1B"/>
</svg>
